<?xml version="1.0" standalone="no"?><!DOCTYPE svg PUBLIC "-//W3C//DTD SVG 1.1//EN" "http://www.w3.org/Graphics/SVG/1.1/DTD/svg11.dtd"><svg class="icon" height="512" viewBox="0 0 1024 1024" version="1.1" xmlns="http://www.w3.org/2000/svg"><path d="M518.367011 300.670897c-53.199643 30.810726-86.603427 64.88273-100.265588 102.245685-11.069103 30.364565-7.444553 55.402821 28.468378 59.418274 43.692105 4.935406 77.56968 42.075281 77.56968 87.077218 0 40.234353-27.102265 74.139557-64.018036 84.428901-77.458139 21.302165-138.493238-48.376801-139.77544-124.384915-1.797949-105.926518 55.876612-185.559183 167.602206-239.204987L518.367011 300.670897 518.367011 300.670897zM759.301386 300.670897c-53.199643 30.810726-86.603427 64.88273-100.265588 102.245685-11.069103 30.364565-7.444553 55.402821 28.440749 59.418274 43.719734 4.935406 77.56968 42.075281 77.56968 87.077218 0 40.234353-27.102265 74.139557-63.990407 84.428901-77.485769 21.302165-138.493238-48.376801-139.804093-124.384915-1.77032-105.926518 55.876612-185.559183 167.602206-239.204987L759.301386 300.670897 759.301386 300.670897z" /></svg>